<svg id="Layer_1" data-name="Layer 1" xmlns="http://www.w3.org/2000/svg" viewBox="0 0 651 353.11"><defs><style>.cls-1{fill:#b6a38a;}.cls-2{fill:#a58452;}</style></defs><path class="cls-1" d="M369.92,420.5c-1,2.75-2.09,5.5-3.12,8.26Q345.41,486.18,324,543.58c-.49,1.31-.33,3.31-2.55,3.4-2.39.11-2.44-2-3-3.39q-23.54-60.44-47-120.91a6.25,6.25,0,0,0-1.82-2.69v2.56q0,50.31,0,100.62a57,57,0,0,0,.7,8.66c1,6.14,4.92,9.22,12.14,9.8,1.24.1,2.46.36,3.69.46,1.74.14,1.48,1.37,1.48,2.5,0,1.72-1.22,1.34-2.2,1.27a237.9,237.9,0,0,0-34.19,0c-.92.06-2,.28-2-1.17,0-1.11-.33-2.39,1.37-2.61,1.23-.16,2.47-.27,3.69-.51,7.74-1.54,10.43-3.83,10.85-14,.4-9.64.09-19.31.09-29q0-37.38,0-74.76a20.52,20.52,0,0,0-.15-3.42c-1.37-8.4-3.5-9-11.52-10.28a11.66,11.66,0,0,0-1.87,0c-1.39,0-2.43-.26-2.49-2-.06-2,1.18-1.78,2.48-1.78,9.66,0,19.32.24,29-.08,3.21-.1,4.23.91,5.3,3.75q20.14,53.6,40.59,107.06c.33.86.78,1.67,1.25,2.7,1.39-1.31,1.62-3,2.17-4.46q19.89-53.19,39.64-106.41c.74-2,1.75-2.42,3.64-2.42q15,0,29.9-.27c1.23,0,1.76.15,1.69,1.41-.07,1.1.26,2.49-1.53,2.44a30.39,30.39,0,0,0-6.46.73c-4.33.8-6.91,3.34-7.51,7.6a58.63,58.63,0,0,0-.66,8q-.06,49.38,0,98.75a58.53,58.53,0,0,0,.67,8.36c.79,5.18,3.89,7.53,10.17,8.06,1.14.1,2.26.32,3.4.37,1.65.09,2,1,1.93,2.48-.06,1.91-1.37,1.52-2.42,1.42-11.92-1.08-23.86-.27-35.79-.53a76.37,76.37,0,0,0-10.25.55c-.93.11-2,.18-2-1.26,0-1.12-.29-2.33,1.44-2.55,2.35-.3,4.7-.72,7-1.09a7.74,7.74,0,0,0,6.8-6.34,26.32,26.32,0,0,0,.8-5.84q.07-54,0-108.09Z" transform="translate(-106.5 -255.45)"/><path class="cls-1" d="M699.22,478.4c2.33,1.13,4.63,1.21,6.82,1.7,12.11,2.67,18.75,10.6,21.6,22.26,2.45,10,4.9,20,7.49,30,1.06,4.08,2.55,8.26,7.39,9.06,4.67.77,7.7-2.28,10.33-5.68.67-.86,1.15-2.14,2.63-.9,1,.82,1.58,1.45.63,2.77-7,9.63-13.85,12.65-26.12,10.15-6.18-1.25-10-5.69-12.23-11.39-3.22-8.11-4.33-16.77-6.32-25.2a174.72,174.72,0,0,0-5-18.54c-3.21-9.06-9.12-13.28-18.74-13.31-5.29,0-10.59.06-15.88,0-2,0-2.76.66-2.72,2.69.27,16.6-.5,33.21.57,49.81.41,6.21,3.47,9.19,10.17,9.81,1.24.11,2.46.34,3.7.42,1.82.11,1.77,1.32,1.71,2.63-.09,1.72-1.36,1.3-2.29,1.21-11.91-1.08-23.85-.26-35.78-.52a70.08,70.08,0,0,0-10.24.55c-1,.12-2,.13-2-1.27,0-1.13-.26-2.36,1.49-2.5,1.13-.09,2.24-.42,3.37-.5,7.56-.51,10.57-3.47,11.12-11,.07-.93,0-1.86,0-2.8q0-51.86,0-103.72a32.53,32.53,0,0,0-.78-6.77c-1-4.6-4.37-6.76-11-7.18-.62,0-1.25,0-1.87,0-1.42,0-2.4-.34-2.44-2.06,0-2,1.26-1.73,2.53-1.73,19,0,38-.18,57,.14,9.81.16,19.25,2.38,27.7,7.87,17.38,11.28,17.8,32.6,7.72,46.69-7.23,10.1-17.69,14.95-29.63,17C700,478.13,699.76,478.24,699.22,478.4Zm-30.07-30.94c0,9.67,0,17.66,0,25.65,0,1.56.16,2.57,2.14,2.49,7.24-.31,14.49.34,21.74-.61,11.55-1.5,19.12-7.89,22.25-19.06a48.76,48.76,0,0,0,1.13-21.51c-2.15-12.74-7.88-20.38-20.66-23.42-5-1.19-10.08-1.05-15.16-.87-7.23.24-10.24,3.48-10.93,10.71C668.74,430.27,669.49,439.71,669.15,447.46Z" transform="translate(-106.5 -255.45)"/><path class="cls-1" d="M148.29,548.51c-8.81.66-17.73-2.27-26-7.4-.17-.1-.37-.17-.55-.28-6.7-3.79-8.25-3.16-9.72,4.33-.43,2.22-1.8,2.09-3.41,2.09-1.89,0-1.53-1.3-1.45-2.38,1-13.69.33-27.4.66-41.1,0-1.54-1.12-3.91,2.27-3.94,3.17,0,2.38,2.08,2.58,3.79C114,515.4,117,526.56,125,535.82c9,10.39,31,12.72,41.84,2.16a24.2,24.2,0,0,0,6.88-13.91c2.53-14.84-5.25-24.34-16.26-32.37-10.15-7.4-21.3-13.27-31.38-20.76-9-6.73-16-15-17.51-26.49-2.8-20.69,6.46-36.07,28.87-39.93,11.76-2,22.67,0,32.47,7.06a11.74,11.74,0,0,0,1.62.93c5.17,2.63,7.28,1.58,8.39-4.17a6.52,6.52,0,0,1,.78-2.64c.79-1,2.14-.56,3.21-.44,1.44.16.92,1.41.86,2.23-.77,11.71-.82,23.43-1.07,35.15,0,1.37.46,2.92-2,3s-2.29-1-2.52-2.8c-1.46-10.9-4.76-21-13.12-28.78-10.12-9.36-33.69-10.05-41.28,6.42-4.12,8.95-2.22,20,4.88,27.7,5.44,5.88,12.35,9.74,19,14,9.6,6.14,19.41,12,28.29,19.18,17.48,14.2,18.56,37.37,7.89,52.11-6.09,8.4-15,12.48-25,14.43C156.41,548.55,152.89,548.49,148.29,548.51Z" transform="translate(-106.5 -255.45)"/><path class="cls-1" d="M474,458.27q0-18.22,0-36.44a13.11,13.11,0,0,0-1.84-7.45c-2.68-4-7.1-3.77-11.16-4.18-1.68-.18-2.78-.34-2.63-2.43.1-1.36.51-1.64,1.89-1.59,15.36.49,30.72.45,46.08,0,1.22,0,2-.11,2,1.43,0,1.33,0,2.56-1.85,2.5a34.57,34.57,0,0,0-4.31.43c-6.58.67-9.38,3.56-9.43,11.44-.15,25.53-.08,51.08-.06,76.62,0,8.2.7,16.36,3.15,24.22,3.77,12,12.19,18.34,24.83,18.84,6.55.26,13,0,19.26-2.44,7.82-3,13-8.66,16.28-16.21,3.93-9,5.45-18.49,5.56-28.13.26-22.53.08-45.06.09-67.59a29.74,29.74,0,0,0-1.37-8.55c-1.6-5.3-6.42-8.21-13.79-8.64-1-.05-2.28.44-2.73-.83a4.29,4.29,0,0,1,0-2.72c.32-.85,1.29-.22,2-.22,11.42,0,22.84,0,34.26,0,1.21,0,2.24-.38,2.19,1.5,0,1.49-.36,2.3-2.06,2.35a29.2,29.2,0,0,0-4.91.63c-4.75.93-7.8,3.92-8.49,8.7a57.85,57.85,0,0,0-.76,8.35c.07,21.9.15,43.81,0,65.72-.07,9.74-1.1,19.41-4.29,28.73C557,536.74,546.58,544.93,532,547.71A56.91,56.91,0,0,1,502.81,546c-15.48-5.26-24.17-16.45-26.89-32.38-2-12-1.76-24.17-1.76-36.3v-19Z" transform="translate(-106.5 -255.45)"/><path class="cls-2" d="M410.67,452.92c.78-13.65,2.33-27.31,2.18-40.95-.35-31.9-7.62-61.7-29.49-86.36-5.75-6.48-12.78-11.48-19.71-16.57-6.17-4.54-12.43-9-18.63-13.46a17.86,17.86,0,0,1-3-2.69c-2.89-3.36-2.69-6.85.57-9.84a28.1,28.1,0,0,1,8.09-5.12c18.7-8,38.29-12.88,58.18-16.73,8.53-1.65,17.13-2.85,25.77-3.74.11,0,.26,0,.31,0,3.51-3.83,7.45-1,11.26-.85,6.31.19,12.61-.56,18.93.24,14.66,1.85,29.44,3,43.62,7.54,2.38.77,6.23,1.37,5,4.95-1.15,3.26-4.37.89-6.43.39a284.29,284.29,0,0,0-37-6,134.48,134.48,0,0,0-25.14-.14c-1.89.16-2.53.94-2.81,2.5-2.72,14.82-5.47,29.64-8.13,44.48-2.41,13.41-4.93,26.82-6.69,40.34q-2.76,21.38-5.16,42.81c-1.72,15.22-3.27,30.46-4.87,45.69-.51,4.84-.86,9.69-1.46,14.52-.17,1.38-.7,2.84-2.44,3.26-1.24.3-2-.53-2.65-1.23C410.08,455.06,410.58,453.93,410.67,452.92Zm5.22-66.11c.57-5.9.85-10.86,1.54-15.77,2.28-16.25,4.16-32.56,6.67-48.79C426.8,304.72,430,287.3,434,270c1.28-5.61,1.34-5.6-4.24-5.08-.82.07-1.66.08-2.47.21-11.79,2-23.48,4.47-35.08,7.31-13.81,3.36-27.61,6.8-40.81,12.2-2.17.88-5.18,1.66-5.49,4s2.67,3.58,4.54,5c10,7.49,20.51,14.33,29.8,22.81C397.64,332.4,408,352.16,413.05,375,413.86,378.64,414,382.49,415.89,386.81Z" transform="translate(-106.5 -255.45)"/><path class="cls-2" d="M442,388c3.18-6.62,5.18-13.55,8.22-20.09,2.14-4.6,4.56-9.05,7.06-13.46a7.42,7.42,0,0,1,3.38-3.51c3.37-1.49,5-.66,5.93,2.9s.51,7.21.61,10.83a35.67,35.67,0,0,0,1.16,8.89c.68,2.39,1.85,2.34,3.56,1.07,3.77-2.81,5.8-7,8.36-10.71a16.39,16.39,0,0,0,2.65-7.74c.89-8,5.35-13.94,12.33-17.95a5.49,5.49,0,0,1,2-.79c2.36-.27,4.9-.75,6.63,1.46,1.51,1.93,1,4.11.13,6.18-2.21,5.43-6.52,8.75-11.68,10.93-2,.86-3.63,1.76-3.7,4a6.85,6.85,0,0,0,3,6.13c2.65,1.81,5.48,1.59,8.33.64,7-2.32,12.39-6.95,17.64-11.85a20,20,0,0,1,1.5-1.55c1-.72,2.36-.95,3.15-.14a2.24,2.24,0,0,1-.31,3.09c-6.31,6.52-13,12.56-21.95,15.24-6.07,1.81-11.2.2-15.28-4.94-2.11,2.9-4.13,5.74-6.22,8.53a15.46,15.46,0,0,1-6.49,5.18c-3.41,1.41-6.15.42-7.75-2.9a23.22,23.22,0,0,1-2.11-9c-.17-3.4-.36-6.8-.56-10.59-1.79,1.05-2.35,2.63-3.07,4a154.89,154.89,0,0,0-12.47,33.61c-.68,2.68-1.16,5.94-4.87,5.8s-3.9-3.69-4.46-6.22c-2.11-9.56-2.41-19.32-2.13-29.07.31-10.35.84-20.71,2-31A142.07,142.07,0,0,1,442,310.11c.21-.69.59-1.33.82-2,.6-1.73,2-1.48,3.36-1.41,1.73.11,1.51,1.46,1.52,2.54,0,4.38-1.16,8.59-1.91,12.85a297.44,297.44,0,0,0-3.56,30.2,314.66,314.66,0,0,0-.39,34.2C441.87,387,442,387.46,442,388Zm57.94-45.51c-4.2,1-8.62,5.61-9.29,9.64C496.19,349.46,499.45,346.07,499.94,342.44Z" transform="translate(-106.5 -255.45)"/><path class="cls-1" d="M233.87,577.76h12.46c-1.63,1.14-3.55.8-3.91,2.32a19.36,19.36,0,0,0-.28,4.25c0,5.35,0,10.7,0,16,0,4.56,0,4.56,3.64,6.7H233.9c4.56-.6,3.6-4,3.62-6.88,0-7,0-7-7-7-6.72,0-6.72,0-6.72,6.74v.86c0,4.31,0,4.31,4.24,6.19H216.15c4-.87,3.14-4,3.16-6.75,0-5.64,0-11.27,0-16.91,0-3.77,0-3.77-3.31-5.23,2.22-.77,9.34-.77,12,.17-4,.38-4.23,2.92-4.22,5.78,0,7.14,0,7.14,7.09,7.14,6.67,0,6.67,0,6.67-6.69C237.53,579.33,237.53,579.33,233.87,577.76Z" transform="translate(-106.5 -255.45)"/><path class="cls-1" d="M649.17,607.14H637.62c4.25-.74,3.39-4,3.4-6.77,0-5.72-.1-11.44.05-17.16.07-2.75-.41-4.76-3.92-4.79l.3-.76c4.09,0,8.19-.19,12.26.08a19.59,19.59,0,0,1,5.89.86c3.25,1.23,5.22,3.59,5.33,6.72.1,2.92-1.67,5.32-4.9,6.66s-3.15,1.29-.83,4.06c1.66,2,3.26,4,4.88,6s2.72,4.09,5.38,4.79c-3.69.66-7,1.16-9.33-2.87-1.94-3.35-4.76-6.18-7.09-9.31a2.3,2.3,0,0,0-2.68-1c-1.19.34-.68,1.42-.71,2.19-.07,1.81.05,3.62,0,5.43C645.46,604,645.44,606.57,649.17,607.14Zm-3.54-21.57c0,1.52,0,3,0,4.58,0,.75-.06,1.46,1,1.72,5.33,1.31,10-2.68,9.29-7.92-.44-3.11-3.66-5-8-4.79-3.77.16-1.84,3-2.29,4.7A6.51,6.51,0,0,0,645.63,585.57Z" transform="translate(-106.5 -255.45)"/><path class="cls-1" d="M345.89,599.11c0-6.29,0-11.7,0-17.11,0-2.47-1.79-3.29-3.77-4.17h9.68c-4.55,1.26-3.72,5-3.73,8.24,0,6.21,0,12.42,0,18.62,0,.91-.1,1.83-.2,3.68l-20.27-25.11c0,7.25-.06,13.61,0,20,0,2.18,1.83,2.89,3.61,3.76h-9.61c4.93-1,3.83-5,3.88-8.29.06-4.87,0-9.75,0-14.62,0-4-.29-4.4-3.94-5.9a7.4,7.4,0,0,1,9.32,2.14C335.67,586.36,340.51,592.38,345.89,599.11Z" transform="translate(-106.5 -255.45)"/><path class="cls-1" d="M295.37,607.83c-7.14-.12-14.72-5.18-14.33-16.35.29-8.19,6.47-14.75,14.53-14.42,8.24.34,14.47,5.13,14.51,15.65C310.11,602.38,303.67,607.7,295.37,607.83Zm9.82-15c0-3.67-.45-6.85-2.11-9.73a8.29,8.29,0,0,0-8.26-4.5,8.11,8.11,0,0,0-7.21,5.28,21.13,21.13,0,0,0,.12,17.37,8,8,0,0,0,8.21,5c3.77-.14,6.2-2.16,7.62-5.48A19.71,19.71,0,0,0,305.19,592.84Z" transform="translate(-106.5 -255.45)"/><path class="cls-1" d="M596.89,592.26c-.32-7.81,4.93-15.35,14.55-15.16,8.6.18,14.46,5.53,14.43,15.68,0,9.71-6.44,14.91-14.49,15C602.76,607.94,596.88,601.55,596.89,592.26Zm24.09.46a18.66,18.66,0,0,0-2-9.42,8.33,8.33,0,0,0-8.16-4.7,8.19,8.19,0,0,0-7.46,5.34,21.25,21.25,0,0,0,0,17.12,8,8,0,0,0,8.08,5.18c3.89-.08,6.41-2.1,7.87-5.54A19.78,19.78,0,0,0,621,592.72Z" transform="translate(-106.5 -255.45)"/><path class="cls-1" d="M492.19,578.31c.36-.93,1-.74,1.54-.74,6.58,0,13.17,0,19.75,0,1.75,0,2.51.61,2.32,2.32-.14,1.26.39,2.62-.55,4-1.31-1.28-1.16-3.53-3.11-4a34.91,34.91,0,0,0-10.25-.56c-1.27,0-1.39,1.1-1.39,2.1,0,2.48.05,5,0,7.44,0,1.54.63,2,2.06,2,1-.06,1.91,0,2.86,0,5.4-.19,4.69.88,7.57-4.35v10.54c-2.67-4.07-6.13-5.31-11.11-4.27-.93.19-1.33.62-1.33,1.51q0,4.73,0,9.45a1.67,1.67,0,0,0,1.93,1.9c2.48,0,5,.06,7.44-.07,3.62-.2,5.7-2.6,7.41-5.66a14.11,14.11,0,0,1-1.29,7c-.25.63-1,.45-1.54.45-7.34,0-14.69,0-22.34-.19,5.47-1.39,3.72-5.63,3.84-9,.17-4.67,0-9.36.06-14C496.07,581.19,495.76,578.68,492.19,578.31Z" transform="translate(-106.5 -255.45)"/><path class="cls-1" d="M699.68,578.31c.36-.93,1-.74,1.54-.74,6.58,0,13.17,0,19.75,0,1.75,0,2.49.6,2.33,2.32-.12,1.26.29,2.6-.5,4-1.37-1.33-1.21-3.58-3.16-4.07a35.27,35.27,0,0,0-10.25-.57c-1.27.06-1.39,1.11-1.4,2.11,0,2.48.06,5,0,7.44-.05,1.53.62,2,2,2,1-.06,1.91,0,2.86,0,5.47-.18,4.71.83,7.58-4.35v10.53c-2.68-4-6.16-5.27-11.11-4.27-1.14.24-1.36.87-1.36,1.8,0,3,0,6.11,0,9.16a1.67,1.67,0,0,0,1.93,1.91c2.48,0,5,.06,7.44-.07,3.62-.2,5.7-2.6,7.41-5.65a14.09,14.09,0,0,1-1.28,7c-.25.63-1,.45-1.54.45q-10.87,0-21.76-.07c-.11,0-.21-.22-.52-.55,4.05-.45,3.87-3.34,3.83-6.27-.06-5.44-.07-10.88,0-16.32C703.55,581.19,703.26,578.67,699.68,578.31Z" transform="translate(-106.5 -255.45)"/><path class="cls-1" d="M129.39,583.83c-2.55-7-8.46-4-13.19-4.57-1.09-.13-1.41.81-1.41,1.75,0,2.67,0,5.35,0,8,0,1.21.49,1.75,1.7,1.71s2.49,0,3.73,0c2.92.11,5.72.06,6.47-3.81v10.68c-1.6-6.86-6.37-4.53-10.06-5-1.37-.15-1.86.61-1.84,1.9,0,2.29.09,4.58,0,6.87-.13,2.75.18,5.08,3.68,5.53H106.65c4-.79,3.61-3.93,3.62-6.84q0-8.16,0-16.32c0-4-.21-4.25-3.77-5.67.58-1,1.54-.56,2.31-.56,6,0,12,.09,18-.08,2.47-.07,3.64.59,3.22,3.17C129.92,581.66,130.46,582.77,129.39,583.83Z" transform="translate(-106.5 -255.45)"/><path class="cls-1" d="M200.84,577.05c-.2,3.34,1.08,6.18.46,9.16-1,0-.87-.83-1.1-1.4-1.24-3-3.19-5.14-6.48-5.89a4.7,4.7,0,0,0-5.3,1.8c-1.3,1.87-.84,3.76.69,5.46a19.2,19.2,0,0,0,5.27,3.86,28.4,28.4,0,0,1,5.38,3.73c2.61,2.35,3.59,5.2,2.47,8.49-1.21,3.54-4.1,5.11-7.65,5.55a12,12,0,0,1-5.86-.93c-1.56-.6-3.14-1.34-4.35,1.67-.74-3.77-1.4-6.57-1.25-10.36,1.19,1.9,1.93,3.15,2.73,4.36a7.83,7.83,0,0,0,7.27,3.69c2.22-.09,4-1,4.75-3a5.2,5.2,0,0,0-1.21-5.81,29.21,29.21,0,0,0-6.54-4.54c-3.32-1.89-6.22-4-6-8.57a7.4,7.4,0,0,1,8.46-7.11,23.35,23.35,0,0,1,3.31.76C198.49,578.73,198.48,578.76,200.84,577.05Z" transform="translate(-106.5 -255.45)"/><path class="cls-1" d="M547.5,576.93c-.06,3.37,1.15,6.27.44,9.75-1-1.82-1.7-3.34-2.63-4.69-1.73-2.51-5.24-3.75-7.74-2.91-3.23,1.08-4.1,4-2,6.76A16.75,16.75,0,0,0,541,590a28.64,28.64,0,0,1,5.41,3.7c2.69,2.4,3.67,5.28,2.53,8.72-1,3.11-4.36,5.26-8,5.45a13,13,0,0,1-5.83-1.11c-1.5-.65-2.75-.69-3.92,1.47a37.77,37.77,0,0,1-1.38-9.32c1.68.68,1.82,2.27,2.54,3.34a8.21,8.21,0,0,0,7.69,4c2.11-.1,3.8-1,4.55-2.87a5.17,5.17,0,0,0-1-5.84,28.81,28.81,0,0,0-6.76-4.72c-3.33-1.89-6.15-4.13-5.85-8.64a7.44,7.44,0,0,1,8.31-7,28.23,28.23,0,0,1,3.87.9C545.29,578.71,545.28,578.75,547.5,576.93Z" transform="translate(-106.5 -255.45)"/><path class="cls-1" d="M581.23,577.26c.26,2.2.54,4.34.76,6.49a4.78,4.78,0,0,1-.42,2.58c-.8-1.44-1.48-3-2.41-4.29-1.81-2.63-5.39-3.86-8-2.9a4,4,0,0,0-2,6.43,15.25,15.25,0,0,0,5.33,4.22,30.77,30.77,0,0,1,5.66,3.83c2.7,2.4,3.71,5.27,2.6,8.72-1,3.1-4.33,5.3-8,5.5a12.47,12.47,0,0,1-5.31-.89c-1.66-.66-3.22-1.15-4.69,1.2-.48-3.41-1.39-6.17-1-9.81,1.11,1.79,1.84,3.06,2.66,4.28a7.9,7.9,0,0,0,7.88,3.57,4.51,4.51,0,0,0,4-2.78,5,5,0,0,0-.64-5.39c-1.87-2.25-4.35-3.64-6.85-5-3.41-1.92-6.44-4.09-6.14-8.75a7.48,7.48,0,0,1,8-7.14,19.3,19.3,0,0,1,3.6.8C579,578.7,579,578.73,581.23,577.26Z" transform="translate(-106.5 -255.45)"/><path class="cls-1" d="M755.38,577.05c.08,3.33,1.34,6.17.73,9.21-1.36-.33-1.09-1.67-1.54-2.49-2.07-3.79-5.85-5.8-9.07-4.66-3,1.09-3.91,4-1.94,6.61a16,16,0,0,0,5.38,4.17,29.7,29.7,0,0,1,5.64,3.87c2.6,2.36,3.58,5.2,2.47,8.49-1.21,3.54-4.1,5.12-7.64,5.56a11.36,11.36,0,0,1-5.86-.94c-1.61-.67-3.09-1-4.42,1.34a40.24,40.24,0,0,1-1.21-10c1.2,1.91,2,3.15,2.74,4.37a7.86,7.86,0,0,0,7.56,3.67,4.63,4.63,0,0,0,4.46-3,5.12,5.12,0,0,0-1-5.59,27.14,27.14,0,0,0-6.73-4.77c-3.31-1.89-6.22-4-6-8.57a7.38,7.38,0,0,1,8.45-7.11,17.11,17.11,0,0,1,3.31.77C752.4,578.57,754,579.16,755.38,577.05Z" transform="translate(-106.5 -255.45)"/><path class="cls-1" d="M441.52,601.69c-1.9,4.21-5.63,5.63-9.72,6.08-9.11,1-15.87-4.87-16.48-14.14-.59-8.94,6-16.45,14.7-16.57a22.87,22.87,0,0,1,6.43,1c1.75.5,3.26.82,4.7-1.39a49.69,49.69,0,0,1,.32,10.14c-1.15,0-1-.87-1.2-1.42-1.71-4.3-5.15-6.82-9.29-6.79a10.29,10.29,0,0,0-9.48,7,19.09,19.09,0,0,0-.16,12.87c2.31,7.14,10,9.68,16.76,5.58C439.29,603.4,440.38,602.51,441.52,601.69Z" transform="translate(-106.5 -255.45)"/><path class="cls-1" d="M480.16,576.71a50.67,50.67,0,0,1,.27,10.19c-1.26-.19-1.08-1.18-1.31-1.8a9.25,9.25,0,0,0-8.66-6.38,9.1,9.1,0,0,0-9,5,17.52,17.52,0,0,0,.1,17.47c2.89,5.22,9.9,6.39,15.57,2.92,1.18-.72,2.27-1.59,3.85-2.71-.25,2-1.45,2.69-2.36,3.43-4.58,3.68-12.25,4.07-17.54,1-4.79-2.81-7.6-9.14-6.68-15.06,1.62-10.35,9.72-15.55,20-12.89C476.3,578.32,478.34,579.64,480.16,576.71Z" transform="translate(-106.5 -255.45)"/><path class="cls-1" d="M148.61,607.21h-7.86c5.86-6.53,7.39-15.14,11.22-22.61.82-1.6,1.35-3.35,2.1-5,.34-.74.39-1.94,1.37-2s1.08,1.15,1.41,1.88q4.85,10.95,9.64,21.92c.94,2.17,1.82,4.37,4.14,5.66H159.85c1.64-1,3.84-1.14,2.74-4-2.12-5.5-1.9-5.58-5.68-5.58-1.33,0-2.67-.1-4,0-1.55.14-3.61-.83-4.56.56a20.73,20.73,0,0,0-2.39,6.07C145.47,605.92,147.54,605.94,148.61,607.21Zm10.93-11.56c-1.7-4-3.33-7.92-5.23-12.41-1.88,4.53-3.47,8.34-5.17,12.41Z" transform="translate(-106.5 -255.45)"/><path class="cls-1" d="M404.8,607.11H393c1.58-1.05,3.89-1,2.9-3.77-2-5.56-1.95-5.82-5.49-5.82h-4c-4.76,0-6.53,1.64-7.21,6.4-.28,2,1.46,2.09,2.81,3.19h-8.45c4.44-3,5.27-7.87,7.2-12.07,2.38-5.18,4.48-10.48,6.72-15.73.28-.67.37-1.69,1.27-1.69s1,1,1.26,1.67c3.24,7.3,6.48,14.59,9.66,21.92C400.65,603.46,401.52,605.73,404.8,607.11Zm-17.23-23.84c-1.7,4.07-3.12,7.47-4.55,10.86-.37.88-.68,1.67.81,1.66,2.89,0,5.78,0,9.06,0C391.06,591.48,389.45,587.68,387.57,583.27Z" transform="translate(-106.5 -255.45)"/><path class="cls-1" d="M257.29,577.85h12.09c-4.05.29-3.8,3.1-3.77,5.91q.09,8.6,0,17.18c0,2.77-.44,5.64,3.59,6.11H257.5c4.7-.82,3.49-4.5,3.52-7.54,0-5.25-.06-10.5,0-15.75C261.11,580.91,261.18,578.24,257.29,577.85Z" transform="translate(-106.5 -255.45)"/><path class="cls-1" d="M676.83,577.85h12.09c-4,.29-3.8,3.1-3.77,5.9.07,5.73,0,11.46,0,17.18,0,4.3,0,4.3,4,6.11H677c4.73-.79,3.49-4.48,3.52-7.52.05-5.25,0-10.5,0-15.75C680.66,580.91,680.71,578.25,676.83,577.85Z" transform="translate(-106.5 -255.45)"/></svg>